<svg width="46" height="69" viewBox="0 0 46 69" fill="none" xmlns="http://www.w3.org/2000/svg">
<g clip-path="url(#clip0_16_36)">
<path fill-rule="evenodd" clip-rule="evenodd" d="M42.7196 34.8447C44.8021 31.385 46 27.3324 46 23C46 10.2975 35.7025 0 23 0C10.2975 0 0 10.2975 0 23C0 27.3327 1.19801 31.3855 3.28084 34.8454L23 69L42.7196 34.8447Z" fill="#0B5351"/>
<path d="M18.8333 29.0698V36C18.8333 36.5523 18.3856 37 17.8333 37H13.3056C12.7533 37 12.3056 36.5523 12.3056 36V23.0698C12.3056 22.5175 11.8578 22.0698 11.3056 22.0698H10.4063C9.51653 22.0698 9.06986 20.9949 9.69757 20.3643L22.2994 7.7039C22.6871 7.31437 23.3165 7.31075 23.7087 7.6958L28.059 11.9671C28.4504 12.3513 29.1111 12.074 29.1111 11.5256C29.1111 11.184 29.3881 10.907 29.7298 10.907H31.7222C32.2745 10.907 32.7222 11.3547 32.7222 11.907V16.0904C32.7222 16.346 32.8201 16.5918 32.9956 16.7775L36.4047 20.3827C37.0076 21.0203 36.5556 22.0698 35.6781 22.0698H34.5556C34.0033 22.0698 33.5556 22.5175 33.5556 23.0698V36C33.5556 36.5523 33.1078 37 32.5556 37H27.8889C27.3366 37 26.8889 36.5523 26.8889 36V29.0698C26.8889 28.5175 26.4412 28.0698 25.8889 28.0698H19.8333C19.281 28.0698 18.8333 28.5175 18.8333 29.0698Z" fill="#00A9A5"/>
</g>
<defs>
<clipPath id="clip0_16_36">
<rect width="46" height="69" fill="white"/>
</clipPath>
</defs>
</svg>
