<svg width="32" height="32" viewBox="0 0 32 32" fill="none" xmlns="http://www.w3.org/2000/svg">
<g clip-path="url(#clip0_16_33)">
<circle cx="16" cy="16" r="16" fill="#0B5351"/>
<path d="M13.2222 21.0465V25C13.2222 25.5523 12.7745 26 12.2222 26H9.87037C9.31809 26 8.87037 25.5523 8.87037 25V16.8892C8.87037 16.4238 8.4931 16.0465 8.02771 16.0465C7.27792 16.0465 6.90153 15.1408 7.43048 14.6094L15.2994 6.7039C15.6871 6.31437 16.3165 6.31075 16.7087 6.6958L19.3727 9.31138C19.6336 9.56752 20.0741 9.3827 20.0741 9.01708C20.0741 8.7893 20.2587 8.60465 20.4865 8.60465H21.4815C22.0338 8.60465 22.4815 9.05237 22.4815 9.60465V11.9276C22.4815 12.1832 22.5793 12.429 22.7549 12.6147L24.5771 14.5417C25.1148 15.1104 24.7117 16.0465 23.929 16.0465C23.4364 16.0465 23.037 16.4459 23.037 16.9385V25C23.037 25.5523 22.5893 26 22.037 26H19.5926C19.0403 26 18.5926 25.5523 18.5926 25V21.0465C18.5926 20.4942 18.1449 20.0465 17.5926 20.0465H14.2222C13.6699 20.0465 13.2222 20.4942 13.2222 21.0465Z" fill="#00A9A5"/>
</g>
<defs>
<clipPath id="clip0_16_33">
<rect width="32" height="32" fill="white"/>
</clipPath>
</defs>
</svg>
